<?xml version="1.0" encoding="utf-8"?>
<!DOCTYPE svg PUBLIC "-//W3C//DTD SVG 1.1//EN" "http://www.w3.org/Graphics/SVG/1.1/DTD/svg11.dtd" [
	<!ENTITY ns_svg "http://www.w3.org/2000/svg">
	<!ENTITY ns_xlink "http://www.w3.org/1999/xlink">
]>
<svg  version="1.1" id="Ebene_1" xmlns="&ns_svg;" xmlns:xlink="&ns_xlink;" width="324.055" height="469.401"
	 viewBox="0 0 324.055 469.401" overflow="visible" enable-background="new 0 0 324.055 469.401" xml:space="preserve">
<path fill-rule="evenodd" clip-rule="evenodd" fill="#253137" d="M323.98,241.524c0.013,3.994,0.025,7.986,0.046,11.968h-0.567
	c-7.518,106.105-92.592,215.909-161.431,215.909c-71.015,0-154.11-109.804-161.443-215.909H0.031
	c-0.027-5.05-0.034-10.015-0.029-14.938c0-0.004,0-0.011,0-0.015s0-0.008,0-0.013C0.13,131.4,10.394,54.64,142.129,42.946
	c4.047-0.359-9.835-11.772-26.813-25.927c22.837,3.212,25.096,14.374,29.958,16.683c2.64-2.691,5.215-17.188,6.277-33.702
	c10.615,12.976,10.748,40.905,14.907,41.147c1.429,0.083,3.698-25.752,21.235-35.026c-4.247,18.874-6.323,37.951-4.214,38.04
	c137.045,5.624,140.14,98.61,140.481,191.798c0.009,0.878,0.094,1.698,0.094,2.58C324.055,239.533,323.995,240.531,323.98,241.524z
	 M160.786,143.365c-87.065-42.717-145.855,6.609-148.38,103.713c4.602,98.806,76.604,205.816,148.38,205.816
	c69.612,0,143.958-107.133,148.632-205.986C306.938,149.924,250.583,100.814,160.786,143.365z M217.708,258.593
	c12.292,4.642,36.223,4.601,37.369,16.625c-8.859,2.212-28.694-7.383-39.833-7.946c-8.445-0.128-18.282,2.621-22.926-5.008
	c2.244-10.729,10.178-11.626,19.976-12.268c4.71-0.307,42.326-2.642,48.158,8.567C260.366,265.989,217.71,254.379,217.708,258.593z
	 M195.518,224.448c-8.831,4.997-12.86-10.732,1.105-18.975c17.58-10.281,66.788,4.861,76.269,23.782
	c0.116,1.044,0.551,4.935,0.667,5.978C259.358,230.147,211.932,214.371,195.518,224.448z M221.355,351.473
	c0,6.563-34.651,33.5-59.327,33.5c-24.675,0-48.368-11.881-48.368-18.443c0-6.565,23.693-4.351,48.368-4.351
	C186.704,362.179,221.355,344.906,221.355,351.473z M51.942,210.109c-0.129-1.043-0.612-4.935-0.741-5.978
	c15.78,5.088,50.385,10.307,75.593,9.247c6.122,1.151,15.311,8.682,6.801,18.974C117.403,233.205,62.475,229.03,51.942,210.109z
	 M117.149,251.346c9.944,0.085,13.936,7.151,13.936,14.961c0,7.811-8.625,13.408-19.266,12.502
	c-10.64-0.905-19.265-7.972-19.265-15.781S107.538,251.263,117.149,251.346z"/>
</svg>
